<svg xmlns="http://www.w3.org/2000/svg" viewBox="0 0 401.88 136.48"><defs><style>.cls-1{fill:#ffef15;}.cls-2{fill:#1a1a1a;}</style></defs><title>glasses</title><g id="Layer_2" data-name="Layer 2"><g id="_ÎÓÈ_1" data-name="—ÎÓÈ_1"><path class="cls-1" d="M401.65,15.25c-1.43-1.71-3.7-2.82-9.14-3.58s-44.95-6.16-73.89-4.76c-30.58,1.48-58.87,6.63-78.68,11s-30.13,6-33.9,5.92l-10.79-.27c-3.77-.09-14-2.23-33.57-7.59S114.11,4.09,83.65,1.1c-28.84-2.83-68.57.61-74,1.11S1.82,3.7.31,5.34,3.24,31,3.24,31a44.68,44.68,0,0,0,6.22,2.67c4.78,1.8,4.42,7.87,4.42,7.87,1.35,4.86,7.44,57,23,71.43C67,140.88,131.76,132.7,149.32,115c19.51-19.62,36.09-58,38.53-63.36,2.29-5.06,11.13-5.62,12.19-5.57,0,0,10,1,12,6.17,2.17,5.5,16.84,44.63,35.36,65.18,16.67,18.5,81,29.87,112.43,3.46,16.22-13.61,24.89-65.43,26.47-70.21,0,0-.06-6.08,4.8-7.64a44.68,44.68,0,0,0,6.35-2.36S403.08,17,401.65,15.25ZM165.39,52.81c-10.16,54.68-28.12,69.12-71.49,68C37.68,119.46,30.41,94.13,30,44c-.25-28.5,20.42-32,59.88-29.54C129,16.91,170.57,24.93,165.39,52.81Zm204.73-.39c-2.91,50-11.43,75-67.65,73.59-43.37-1.07-60.6-16.38-68-71.49-3.8-28.1,38.13-34.06,77.35-34.56C351.31,19.45,371.78,24,370.13,52.42Z"/><path class="cls-2" d="M89.85,14.52C50.4,12.06,29.72,15.56,30,44.06c.44,50.12,7.71,75.45,63.93,76.84,43.37,1.08,61.34-13.37,71.49-68C170.58,25,129,17,89.85,14.52Z"/><path class="cls-2" d="M311.79,20c-39.22.5-81.15,6.46-77.35,34.56,7.44,55.11,24.68,70.43,68,71.49,56.22,1.38,64.74-23.56,67.65-73.59C371.79,24,351.32,19.5,311.79,20Z"/></g></g></svg>