<svg xmlns="http://www.w3.org/2000/svg" viewBox="0 0 486 486">
  <defs><style>.cls-1{fill:#ccc;}.cls-2{fill:#a0a0a0;}</style></defs>
  <title>moon</title>
  <path class="cls-1" d="M486,243A243,243,0,0,1,243,486C108.79,486,0,377.21,0,243S108.79,0,243,0q8,0,15.87.51C385.68,8.68,486,114.12,486,243Z"/>
  <path class="cls-2" d="M406,423.21A242.12,242.12,0,0,1,243,486C108.79,486,0,377.21,0,243S108.79,0,243,0q8,0,15.87.51a28,28,0,0,1-16,28.82L107,92.73a28,28,0,1,0,23.67,50.75l94.25-44a28,28,0,1,1,23.67,50.75L111.7,214.1a28,28,0,1,0,23.66,50.75l125.07-58.32a28,28,0,1,1,23.67,50.75l-71.6,33.39a28,28,0,0,0,23.67,50.75l16.31-7.61a28,28,0,0,1,23.67,50.76L249,397.25A28,28,0,1,0,272.63,448l94.25-44A28,28,0,0,1,406,423.21Z"/>
</svg>
